<svg version="1.1" xmlns="http://www.w3.org/2000/svg" xmlns:xlink="http://www.w3.org/1999/xlink" width="509" height="725"><defs/><g><g transform="translate(-54,2) scale(1,1)"><rect fill="#C0C0C0" stroke="none" x="303" y="15" width="257" height="705" opacity="0.2"/></g><g transform="translate(-54,2) scale(1,1)"><rect fill="#ffffff" stroke="none" x="296" y="8" width="257" height="705"/></g><g transform="translate(-54,2) scale(1,1)"><path fill="none" stroke="#000000" d="M 296 8 L 553 8 L 553 713 L 296 713 L 296 8 Z Z" stroke-miterlimit="10"/></g><g transform="translate(-54,2) scale(1,1)"><path fill="none" stroke="#000000" d="M 296 46 L 553 46" stroke-miterlimit="10"/></g><g transform="translate(-54,2) scale(1,1)"><g><path fill="none" stroke="none"/><text fill="#000000" stroke="none" font-family="Courier" font-size="13px" font-style="normal" font-weight="normal" text-decoration="none" x="400.5" y="25.5">«Fact»</text></g></g><g transform="translate(-54,2) scale(1,1)"><g><path fill="none" stroke="none"/><text fill="#000000" stroke="none" font-family="Courier" font-size="13px" font-style="normal" font-weight="bold" text-decoration="none" x="380.5" y="40.5">Acquisition</text></g></g><g transform="translate(-54,2) scale(1,1)"><g><path fill="none" stroke="none"/><text fill="#000000" stroke="none" font-family="Courier" font-size="13px" font-style="normal" font-weight="normal" text-decoration="none" x="301" y="63.5">test_id</text></g></g><g transform="translate(-54,2) scale(1,1)"><g><path fill="none" stroke="none"/><text fill="#000000" stroke="none" font-family="Courier" font-size="13px" font-style="normal" font-weight="normal" text-decoration="none" x="301" y="78.5">date_key</text></g></g><g transform="translate(-54,2) scale(1,1)"><g><path fill="none" stroke="none"/><text fill="#000000" stroke="none" font-family="Courier" font-size="13px" font-style="normal" font-weight="normal" text-decoration="none" x="301" y="93.5">step_key</text></g></g><g transform="translate(-54,2) scale(1,1)"><g><path fill="none" stroke="none"/><text fill="#000000" stroke="none" font-family="Courier" font-size="13px" font-style="normal" font-weight="normal" text-decoration="none" x="301" y="108.5">km_key</text></g></g><g transform="translate(-54,2) scale(1,1)"><g><path fill="none" stroke="none"/><text fill="#000000" stroke="none" font-family="Courier" font-size="13px" font-style="normal" font-weight="normal" text-decoration="none" x="301" y="123.5">co_conc_vol%</text></g></g><g transform="translate(-54,2) scale(1,1)"><g><path fill="none" stroke="none"/><text fill="#000000" stroke="none" font-family="Courier" font-size="13px" font-style="normal" font-weight="normal" text-decoration="none" x="301" y="138.5">co2_conc_vol%</text></g></g><g transform="translate(-54,2) scale(1,1)"><g><path fill="none" stroke="none"/><text fill="#000000" stroke="none" font-family="Courier" font-size="13px" font-style="normal" font-weight="normal" text-decoration="none" x="301" y="153.5">nox_conc_ppm</text></g></g><g transform="translate(-54,2) scale(1,1)"><g><path fill="none" stroke="none"/><text fill="#000000" stroke="none" font-family="Courier" font-size="13px" font-style="normal" font-weight="normal" text-decoration="none" x="301" y="168.5">h2o_conc_vol%</text></g></g><g transform="translate(-54,2) scale(1,1)"><g><path fill="none" stroke="none"/><text fill="#000000" stroke="none" font-family="Courier" font-size="13px" font-style="normal" font-weight="normal" text-decoration="none" x="301" y="183.5">a_f</text></g></g><g transform="translate(-54,2) scale(1,1)"><g><path fill="none" stroke="none"/><text fill="#000000" stroke="none" font-family="Courier" font-size="13px" font-style="normal" font-weight="normal" text-decoration="none" x="301" y="198.5">exh_flow_corr_m3_min</text></g></g><g transform="translate(-54,2) scale(1,1)"><g><path fill="none" stroke="none"/><text fill="#000000" stroke="none" font-family="Courier" font-size="13px" font-style="normal" font-weight="normal" text-decoration="none" x="301" y="213.5">exh_flow_corr_m3_sec</text></g></g><g transform="translate(-54,2) scale(1,1)"><g><path fill="none" stroke="none"/><text fill="#000000" stroke="none" font-family="Courier" font-size="13px" font-style="normal" font-weight="normal" text-decoration="none" x="301" y="228.5">exh_temp_degc</text></g></g><g transform="translate(-54,2) scale(1,1)"><g><path fill="none" stroke="none"/><text fill="#000000" stroke="none" font-family="Courier" font-size="13px" font-style="normal" font-weight="normal" text-decoration="none" x="301" y="243.5">exh_press_kpa</text></g></g><g transform="translate(-54,2) scale(1,1)"><g><path fill="none" stroke="none"/><text fill="#000000" stroke="none" font-family="Courier" font-size="13px" font-style="normal" font-weight="normal" text-decoration="none" x="301" y="258.5">amb_temp_degc</text></g></g><g transform="translate(-54,2) scale(1,1)"><g><path fill="none" stroke="none"/><text fill="#000000" stroke="none" font-family="Courier" font-size="13px" font-style="normal" font-weight="normal" text-decoration="none" x="301" y="273.5">amb_press_kpa</text></g></g><g transform="translate(-54,2) scale(1,1)"><g><path fill="none" stroke="none"/><text fill="#000000" stroke="none" font-family="Courier" font-size="13px" font-style="normal" font-weight="normal" text-decoration="none" x="301" y="288.5">amb_humid_%rh</text></g></g><g transform="translate(-54,2) scale(1,1)"><g><path fill="none" stroke="none"/><text fill="#000000" stroke="none" font-family="Courier" font-size="13px" font-style="normal" font-weight="normal" text-decoration="none" x="301" y="303.5">altitude_m</text></g></g><g transform="translate(-54,2) scale(1,1)"><g><path fill="none" stroke="none"/><text fill="#000000" stroke="none" font-family="Courier" font-size="13px" font-style="normal" font-weight="normal" text-decoration="none" x="301" y="318.5">velocity_km_h</text></g></g><g transform="translate(-54,2) scale(1,1)"><g><path fill="none" stroke="none"/><text fill="#000000" stroke="none" font-family="Courier" font-size="13px" font-style="normal" font-weight="normal" text-decoration="none" x="301" y="333.5">battery_v</text></g></g><g transform="translate(-54,2) scale(1,1)"><g><path fill="none" stroke="none"/><text fill="#000000" stroke="none" font-family="Courier" font-size="13px" font-style="normal" font-weight="normal" text-decoration="none" x="301" y="348.5">co_mass_g_s</text></g></g><g transform="translate(-54,2) scale(1,1)"><g><path fill="none" stroke="none"/><text fill="#000000" stroke="none" font-family="Courier" font-size="13px" font-style="normal" font-weight="normal" text-decoration="none" x="301" y="363.5">co2_mass_g_s</text></g></g><g transform="translate(-54,2) scale(1,1)"><g><path fill="none" stroke="none"/><text fill="#000000" stroke="none" font-family="Courier" font-size="13px" font-style="normal" font-weight="normal" text-decoration="none" x="301" y="378.5">nox_mass_g_s</text></g></g><g transform="translate(-54,2) scale(1,1)"><g><path fill="none" stroke="none"/><text fill="#000000" stroke="none" font-family="Courier" font-size="13px" font-style="normal" font-weight="normal" text-decoration="none" x="301" y="393.5">fuel_g_s</text></g></g><g transform="translate(-54,2) scale(1,1)"><g><path fill="none" stroke="none"/><text fill="#000000" stroke="none" font-family="Courier" font-size="13px" font-style="normal" font-weight="normal" text-decoration="none" x="301" y="408.5">power_kw</text></g></g><g transform="translate(-54,2) scale(1,1)"><g><path fill="none" stroke="none"/><text fill="#000000" stroke="none" font-family="Courier" font-size="13px" font-style="normal" font-weight="normal" text-decoration="none" x="301" y="423.5">speed_km_h</text></g></g><g transform="translate(-54,2) scale(1,1)"><g><path fill="none" stroke="none"/><text fill="#000000" stroke="none" font-family="Courier" font-size="13px" font-style="normal" font-weight="normal" text-decoration="none" x="301" y="438.5">voltage_v</text></g></g><g transform="translate(-54,2) scale(1,1)"><g><path fill="none" stroke="none"/><text fill="#000000" stroke="none" font-family="Courier" font-size="13px" font-style="normal" font-weight="normal" text-decoration="none" x="301" y="453.5">ecu_engine_coolant_temp_degc</text></g></g><g transform="translate(-54,2) scale(1,1)"><g><path fill="none" stroke="none"/><text fill="#000000" stroke="none" font-family="Courier" font-size="13px" font-style="normal" font-weight="normal" text-decoration="none" x="301" y="468.5">ecu_fuel_pressure_kpa</text></g></g><g transform="translate(-54,2) scale(1,1)"><g><path fill="none" stroke="none"/><text fill="#000000" stroke="none" font-family="Courier" font-size="13px" font-style="normal" font-weight="normal" text-decoration="none" x="301" y="483.5">ecu_engine_rpm</text></g></g><g transform="translate(-54,2) scale(1,1)"><g><path fill="none" stroke="none"/><text fill="#000000" stroke="none" font-family="Courier" font-size="13px" font-style="normal" font-weight="normal" text-decoration="none" x="301" y="498.5">ecu_vehicle_speed_m_s</text></g></g><g transform="translate(-54,2) scale(1,1)"><g><path fill="none" stroke="none"/><text fill="#000000" stroke="none" font-family="Courier" font-size="13px" font-style="normal" font-weight="normal" text-decoration="none" x="301" y="513.5">distance_m</text></g></g><g transform="translate(-54,2) scale(1,1)"><g><path fill="none" stroke="none"/><text fill="#000000" stroke="none" font-family="Courier" font-size="13px" font-style="normal" font-weight="normal" text-decoration="none" x="301" y="528.5">ecu_intake_air_temp_degc</text></g></g><g transform="translate(-54,2) scale(1,1)"><g><path fill="none" stroke="none"/><text fill="#000000" stroke="none" font-family="Courier" font-size="13px" font-style="normal" font-weight="normal" text-decoration="none" x="301" y="543.5">ecu_maf_air_flow_rate_grams_s</text></g></g><g transform="translate(-54,2) scale(1,1)"><g><path fill="none" stroke="none"/><text fill="#000000" stroke="none" font-family="Courier" font-size="13px" font-style="normal" font-weight="normal" text-decoration="none" x="301" y="558.5">ecu_maf_air_flow_rate_m3_s</text></g></g><g transform="translate(-54,2) scale(1,1)"><g><path fill="none" stroke="none"/><text fill="#000000" stroke="none" font-family="Courier" font-size="13px" font-style="normal" font-weight="normal" text-decoration="none" x="301" y="573.5">ecu_fuel_rail_pressure_kpa</text></g></g><g transform="translate(-54,2) scale(1,1)"><g><path fill="none" stroke="none"/><text fill="#000000" stroke="none" font-family="Courier" font-size="13px" font-style="normal" font-weight="normal" text-decoration="none" x="301" y="588.5">ecu_diesel_rail_pressure_kpa</text></g></g><g transform="translate(-54,2) scale(1,1)"><g><path fill="none" stroke="none"/><text fill="#000000" stroke="none" font-family="Courier" font-size="13px" font-style="normal" font-weight="normal" text-decoration="none" x="301" y="603.5">ecu_commanded_egr_%</text></g></g><g transform="translate(-54,2) scale(1,1)"><g><path fill="none" stroke="none"/><text fill="#000000" stroke="none" font-family="Courier" font-size="13px" font-style="normal" font-weight="normal" text-decoration="none" x="301" y="618.5">ecu_barometric_pressure_kpa</text></g></g><g transform="translate(-54,2) scale(1,1)"><g><path fill="none" stroke="none"/><text fill="#000000" stroke="none" font-family="Courier" font-size="13px" font-style="normal" font-weight="normal" text-decoration="none" x="301" y="633.5">ecu_ambient_air_temp_degc</text></g></g><g transform="translate(-54,2) scale(1,1)"><g><path fill="none" stroke="none"/><text fill="#000000" stroke="none" font-family="Courier" font-size="13px" font-style="normal" font-weight="normal" text-decoration="none" x="301" y="648.5">ecu_fuel_rail_pressure_time_kpa</text></g></g><g transform="translate(-54,2) scale(1,1)"><g><path fill="none" stroke="none"/><text fill="#000000" stroke="none" font-family="Courier" font-size="13px" font-style="normal" font-weight="normal" text-decoration="none" x="301" y="663.5">ecu_engine_oil_temp_degc</text></g></g><g transform="translate(-54,2) scale(1,1)"><g><path fill="none" stroke="none"/><text fill="#000000" stroke="none" font-family="Courier" font-size="13px" font-style="normal" font-weight="normal" text-decoration="none" x="301" y="678.5">ecu_engine_fuel_rate_l_h</text></g></g><g transform="translate(-54,2) scale(1,1)"><g><path fill="none" stroke="none"/><text fill="#000000" stroke="none" font-family="Courier" font-size="13px" font-style="normal" font-weight="normal" text-decoration="none" x="301" y="693.5">ecu_actual_engine_%</text></g></g><g transform="translate(-54,2) scale(1,1)"><g><path fill="none" stroke="none"/><text fill="#000000" stroke="none" font-family="Courier" font-size="13px" font-style="normal" font-weight="normal" text-decoration="none" x="301" y="708.5">ecu_engine_reference_torque_nm</text></g></g><g transform="translate(-54,2) scale(1,1)"><rect fill="#C0C0C0" stroke="none" x="71" y="95" width="97" height="105" opacity="0.2"/></g><g transform="translate(-54,2) scale(1,1)"><rect fill="#ffffff" stroke="none" x="64" y="88" width="97" height="105"/></g><g transform="translate(-54,2) scale(1,1)"><path fill="none" stroke="#000000" d="M 64 88 L 161 88 L 161 193 L 64 193 L 64 88 Z Z" stroke-miterlimit="10"/></g><g transform="translate(-54,2) scale(1,1)"><path fill="none" stroke="#000000" d="M 64 126 L 161 126" stroke-miterlimit="10"/></g><g transform="translate(-54,2) scale(1,1)"><g><path fill="none" stroke="none"/><text fill="#000000" stroke="none" font-family="Courier" font-size="13px" font-style="normal" font-weight="normal" text-decoration="none" x="68.5" y="105.5">«Hierarchy»</text></g></g><g transform="translate(-54,2) scale(1,1)"><g><path fill="none" stroke="none"/><text fill="#000000" stroke="none" font-family="Courier" font-size="13px" font-style="normal" font-weight="bold" text-decoration="none" x="96.5" y="120.5">Date</text></g></g><g transform="translate(-54,2) scale(1,1)"><g><path fill="none" stroke="none"/><text fill="#000000" stroke="none" font-family="Courier" font-size="13px" font-style="normal" font-weight="normal" text-decoration="none" x="69" y="143.5">date_key</text></g></g><g transform="translate(-54,2) scale(1,1)"><g><path fill="none" stroke="none"/><text fill="#000000" stroke="none" font-family="Courier" font-size="13px" font-style="normal" font-weight="normal" text-decoration="none" x="69" y="158.5">month</text></g></g><g transform="translate(-54,2) scale(1,1)"><g><path fill="none" stroke="none"/><text fill="#000000" stroke="none" font-family="Courier" font-size="13px" font-style="normal" font-weight="normal" text-decoration="none" x="69" y="173.5">season</text></g></g><g transform="translate(-54,2) scale(1,1)"><g><path fill="none" stroke="none"/><text fill="#000000" stroke="none" font-family="Courier" font-size="13px" font-style="normal" font-weight="normal" text-decoration="none" x="69" y="188.5">year</text></g></g><g transform="translate(-54,2) scale(1,1)"><path fill="none" stroke="#000000" d="M 120 193 L 120 240 L 296 240" stroke-miterlimit="10"/></g><g transform="translate(-54,2) scale(1,1)"><rect fill="#C0C0C0" stroke="none" x="71" y="319" width="97" height="90" opacity="0.2"/></g><g transform="translate(-54,2) scale(1,1)"><rect fill="#ffffff" stroke="none" x="64" y="312" width="97" height="90"/></g><g transform="translate(-54,2) scale(1,1)"><path fill="none" stroke="#000000" d="M 64 312 L 161 312 L 161 402 L 64 402 L 64 312 Z Z" stroke-miterlimit="10"/></g><g transform="translate(-54,2) scale(1,1)"><path fill="none" stroke="#000000" d="M 64 350 L 161 350" stroke-miterlimit="10"/></g><g transform="translate(-54,2) scale(1,1)"><g><path fill="none" stroke="none"/><text fill="#000000" stroke="none" font-family="Courier" font-size="13px" font-style="normal" font-weight="normal" text-decoration="none" x="68.5" y="329.5">«Hierarchy»</text></g></g><g transform="translate(-54,2) scale(1,1)"><g><path fill="none" stroke="none"/><text fill="#000000" stroke="none" font-family="Courier" font-size="13px" font-style="normal" font-weight="bold" text-decoration="none" x="96.5" y="344.5">Time</text></g></g><g transform="translate(-54,2) scale(1,1)"><g><path fill="none" stroke="none"/><text fill="#000000" stroke="none" font-family="Courier" font-size="13px" font-style="normal" font-weight="normal" text-decoration="none" x="69" y="367.5">step_key</text></g></g><g transform="translate(-54,2) scale(1,1)"><g><path fill="none" stroke="none"/><text fill="#000000" stroke="none" font-family="Courier" font-size="13px" font-style="normal" font-weight="normal" text-decoration="none" x="69" y="382.5">minute</text></g></g><g transform="translate(-54,2) scale(1,1)"><g><path fill="none" stroke="none"/><text fill="#000000" stroke="none" font-family="Courier" font-size="13px" font-style="normal" font-weight="normal" text-decoration="none" x="69" y="397.5">hour</text></g></g><g transform="translate(-54,2) scale(1,1)"><path fill="none" stroke="#000000" d="M 120 402 L 120 448 L 296 448" stroke-miterlimit="10"/></g><g transform="translate(-54,2) scale(1,1)"><rect fill="#C0C0C0" stroke="none" x="71" y="519" width="97" height="105" opacity="0.2"/></g><g transform="translate(-54,2) scale(1,1)"><rect fill="#ffffff" stroke="none" x="64" y="512" width="97" height="105"/></g><g transform="translate(-54,2) scale(1,1)"><path fill="none" stroke="#000000" d="M 64 512 L 161 512 L 161 617 L 64 617 L 64 512 Z Z" stroke-miterlimit="10"/></g><g transform="translate(-54,2) scale(1,1)"><path fill="none" stroke="#000000" d="M 64 550 L 161 550" stroke-miterlimit="10"/></g><g transform="translate(-54,2) scale(1,1)"><g><path fill="none" stroke="none"/><text fill="#000000" stroke="none" font-family="Courier" font-size="13px" font-style="normal" font-weight="normal" text-decoration="none" x="68.5" y="529.5">«Hierarchy»</text></g></g><g transform="translate(-54,2) scale(1,1)"><g><path fill="none" stroke="none"/><text fill="#000000" stroke="none" font-family="Courier" font-size="13px" font-style="normal" font-weight="bold" text-decoration="none" x="80.5" y="544.5">Distance</text></g></g><g transform="translate(-54,2) scale(1,1)"><g><path fill="none" stroke="none"/><text fill="#000000" stroke="none" font-family="Courier" font-size="13px" font-style="normal" font-weight="normal" text-decoration="none" x="69" y="567.5">1km_key</text></g></g><g transform="translate(-54,2) scale(1,1)"><g><path fill="none" stroke="none"/><text fill="#000000" stroke="none" font-family="Courier" font-size="13px" font-style="normal" font-weight="normal" text-decoration="none" x="69" y="582.5">5km</text></g></g><g transform="translate(-54,2) scale(1,1)"><g><path fill="none" stroke="none"/><text fill="#000000" stroke="none" font-family="Courier" font-size="13px" font-style="normal" font-weight="normal" text-decoration="none" x="69" y="597.5">25km</text></g></g><g transform="translate(-54,2) scale(1,1)"><g><path fill="none" stroke="none"/><text fill="#000000" stroke="none" font-family="Courier" font-size="13px" font-style="normal" font-weight="normal" text-decoration="none" x="69" y="612.5">50km</text></g></g><g transform="translate(-54,2) scale(1,1)"><path fill="none" stroke="#000000" d="M 112 617 L 112 664 L 296 664" stroke-miterlimit="10"/></g></g></svg>