<svg version="1.1" xmlns="http://www.w3.org/2000/svg" xmlns:xlink="http://www.w3.org/1999/xlink" width="613" height="1042"><defs/><g><g transform="translate(-286,2) scale(1,1)"><rect fill="#C0C0C0" stroke="none" x="455" y="391" width="97" height="105" opacity="0.2"/></g><g transform="translate(-286,2) scale(1,1)"><rect fill="#ffffff" stroke="none" x="448" y="384" width="97" height="105"/></g><g transform="translate(-286,2) scale(1,1)"><path fill="none" stroke="#000000" d="M 448 384 L 545 384 L 545 489 L 448 489 L 448 384 Z Z" stroke-miterlimit="10"/></g><g transform="translate(-286,2) scale(1,1)"><path fill="none" stroke="#000000" d="M 448 422 L 545 422" stroke-miterlimit="10"/></g><g transform="translate(-286,2) scale(1,1)"><g><path fill="none" stroke="none"/><text fill="#000000" stroke="none" font-family="Courier" font-size="13px" font-style="normal" font-weight="normal" text-decoration="none" x="452.5" y="401.5">«Hierarchy»</text></g></g><g transform="translate(-286,2) scale(1,1)"><g><path fill="none" stroke="none"/><text fill="#000000" stroke="none" font-family="Courier" font-size="13px" font-style="normal" font-weight="bold" text-decoration="none" x="480.5" y="416.5">Date</text></g></g><g transform="translate(-286,2) scale(1,1)"><g><path fill="none" stroke="none"/><text fill="#000000" stroke="none" font-family="Courier" font-size="13px" font-style="normal" font-weight="normal" text-decoration="none" x="453" y="439.5">date_key</text></g></g><g transform="translate(-286,2) scale(1,1)"><g><path fill="none" stroke="none"/><text fill="#000000" stroke="none" font-family="Courier" font-size="13px" font-style="normal" font-weight="normal" text-decoration="none" x="453" y="454.5">month</text></g></g><g transform="translate(-286,2) scale(1,1)"><g><path fill="none" stroke="none"/><text fill="#000000" stroke="none" font-family="Courier" font-size="13px" font-style="normal" font-weight="normal" text-decoration="none" x="453" y="469.5">season</text></g></g><g transform="translate(-286,2) scale(1,1)"><g><path fill="none" stroke="none"/><text fill="#000000" stroke="none" font-family="Courier" font-size="13px" font-style="normal" font-weight="normal" text-decoration="none" x="453" y="484.5">year</text></g></g><g transform="translate(-286,2) scale(1,1)"><rect fill="#C0C0C0" stroke="none" x="679" y="391" width="97" height="105" opacity="0.2"/></g><g transform="translate(-286,2) scale(1,1)"><rect fill="#ffffff" stroke="none" x="672" y="384" width="97" height="105"/></g><g transform="translate(-286,2) scale(1,1)"><path fill="none" stroke="#000000" d="M 672 384 L 769 384 L 769 489 L 672 489 L 672 384 Z Z" stroke-miterlimit="10"/></g><g transform="translate(-286,2) scale(1,1)"><path fill="none" stroke="#000000" d="M 672 422 L 769 422" stroke-miterlimit="10"/></g><g transform="translate(-286,2) scale(1,1)"><g><path fill="none" stroke="none"/><text fill="#000000" stroke="none" font-family="Courier" font-size="13px" font-style="normal" font-weight="normal" text-decoration="none" x="676.5" y="401.5">«Hierarchy»</text></g></g><g transform="translate(-286,2) scale(1,1)"><g><path fill="none" stroke="none"/><text fill="#000000" stroke="none" font-family="Courier" font-size="13px" font-style="normal" font-weight="bold" text-decoration="none" x="688.5" y="416.5">Distance</text></g></g><g transform="translate(-286,2) scale(1,1)"><g><path fill="none" stroke="none"/><text fill="#000000" stroke="none" font-family="Courier" font-size="13px" font-style="normal" font-weight="normal" text-decoration="none" x="677" y="439.5">1km_key</text></g></g><g transform="translate(-286,2) scale(1,1)"><g><path fill="none" stroke="none"/><text fill="#000000" stroke="none" font-family="Courier" font-size="13px" font-style="normal" font-weight="normal" text-decoration="none" x="677" y="454.5">5km</text></g></g><g transform="translate(-286,2) scale(1,1)"><g><path fill="none" stroke="none"/><text fill="#000000" stroke="none" font-family="Courier" font-size="13px" font-style="normal" font-weight="normal" text-decoration="none" x="677" y="469.5">25km</text></g></g><g transform="translate(-286,2) scale(1,1)"><g><path fill="none" stroke="none"/><text fill="#000000" stroke="none" font-family="Courier" font-size="13px" font-style="normal" font-weight="normal" text-decoration="none" x="677" y="484.5">50km</text></g></g><g transform="translate(-286,2) scale(1,1)"><rect fill="#C0C0C0" stroke="none" x="567" y="391" width="97" height="104" opacity="0.2"/></g><g transform="translate(-286,2) scale(1,1)"><rect fill="#ffffff" stroke="none" x="560" y="384" width="97" height="104"/></g><g transform="translate(-286,2) scale(1,1)"><path fill="none" stroke="#000000" d="M 560 384 L 657 384 L 657 488 L 560 488 L 560 384 Z Z" stroke-miterlimit="10"/></g><g transform="translate(-286,2) scale(1,1)"><path fill="none" stroke="#000000" d="M 560 422 L 657 422" stroke-miterlimit="10"/></g><g transform="translate(-286,2) scale(1,1)"><g><path fill="none" stroke="none"/><text fill="#000000" stroke="none" font-family="Courier" font-size="13px" font-style="normal" font-weight="normal" text-decoration="none" x="564.5" y="401.5">«Hierarchy»</text></g></g><g transform="translate(-286,2) scale(1,1)"><g><path fill="none" stroke="none"/><text fill="#000000" stroke="none" font-family="Courier" font-size="13px" font-style="normal" font-weight="bold" text-decoration="none" x="592.5" y="416.5">Time</text></g></g><g transform="translate(-286,2) scale(1,1)"><g><path fill="none" stroke="none"/><text fill="#000000" stroke="none" font-family="Courier" font-size="13px" font-style="normal" font-weight="normal" text-decoration="none" x="565" y="439.5">step_key</text></g></g><g transform="translate(-286,2) scale(1,1)"><g><path fill="none" stroke="none"/><text fill="#000000" stroke="none" font-family="Courier" font-size="13px" font-style="normal" font-weight="normal" text-decoration="none" x="565" y="454.5">minute</text></g></g><g transform="translate(-286,2) scale(1,1)"><g><path fill="none" stroke="none"/><text fill="#000000" stroke="none" font-family="Courier" font-size="13px" font-style="normal" font-weight="normal" text-decoration="none" x="565" y="469.5">hour</text></g></g><g transform="translate(-286,2) scale(1,1)"><rect fill="#C0C0C0" stroke="none" x="735" y="15" width="161" height="285" opacity="0.2"/></g><g transform="translate(-286,2) scale(1,1)"><rect fill="#ffffff" stroke="none" x="728" y="8" width="161" height="285"/></g><g transform="translate(-286,2) scale(1,1)"><path fill="none" stroke="#000000" d="M 728 8 L 889 8 L 889 293 L 728 293 L 728 8 Z Z" stroke-miterlimit="10"/></g><g transform="translate(-286,2) scale(1,1)"><path fill="none" stroke="#000000" d="M 728 46 L 889 46" stroke-miterlimit="10"/></g><g transform="translate(-286,2) scale(1,1)"><g><path fill="none" stroke="none"/><text fill="#000000" stroke="none" font-family="Courier" font-size="13px" font-style="normal" font-weight="normal" text-decoration="none" x="784.5" y="25.5">«Fact»</text></g></g><g transform="translate(-286,2) scale(1,1)"><g><path fill="none" stroke="none"/><text fill="#000000" stroke="none" font-family="Courier" font-size="13px" font-style="normal" font-weight="bold" text-decoration="none" x="732.5" y="40.5">Acquisition General</text></g></g><g transform="translate(-286,2) scale(1,1)"><g><path fill="none" stroke="none"/><text fill="#000000" stroke="none" font-family="Courier" font-size="13px" font-style="normal" font-weight="normal" text-decoration="none" x="733" y="63.5">row_id</text></g></g><g transform="translate(-286,2) scale(1,1)"><g><path fill="none" stroke="none"/><text fill="#000000" stroke="none" font-family="Courier" font-size="13px" font-style="normal" font-weight="normal" text-decoration="none" x="733" y="78.5">test_id</text></g></g><g transform="translate(-286,2) scale(1,1)"><g><path fill="none" stroke="none"/><text fill="#000000" stroke="none" font-family="Courier" font-size="13px" font-style="normal" font-weight="normal" text-decoration="none" x="733" y="93.5">date_key</text></g></g><g transform="translate(-286,2) scale(1,1)"><g><path fill="none" stroke="none"/><text fill="#000000" stroke="none" font-family="Courier" font-size="13px" font-style="normal" font-weight="normal" text-decoration="none" x="733" y="108.5">step_key</text></g></g><g transform="translate(-286,2) scale(1,1)"><g><path fill="none" stroke="none"/><text fill="#000000" stroke="none" font-family="Courier" font-size="13px" font-style="normal" font-weight="normal" text-decoration="none" x="733" y="123.5">km_key</text></g></g><g transform="translate(-286,2) scale(1,1)"><g><path fill="none" stroke="none"/><text fill="#000000" stroke="none" font-family="Courier" font-size="13px" font-style="normal" font-weight="normal" text-decoration="none" x="733" y="138.5">altitude_m</text></g></g><g transform="translate(-286,2) scale(1,1)"><g><path fill="none" stroke="none"/><text fill="#000000" stroke="none" font-family="Courier" font-size="13px" font-style="normal" font-weight="normal" text-decoration="none" x="733" y="153.5">velocity_km_h</text></g></g><g transform="translate(-286,2) scale(1,1)"><g><path fill="none" stroke="none"/><text fill="#000000" stroke="none" font-family="Courier" font-size="13px" font-style="normal" font-weight="normal" text-decoration="none" x="733" y="168.5">battery_v</text></g></g><g transform="translate(-286,2) scale(1,1)"><g><path fill="none" stroke="none"/><text fill="#000000" stroke="none" font-family="Courier" font-size="13px" font-style="normal" font-weight="normal" text-decoration="none" x="733" y="183.5">fuel_g_s</text></g></g><g transform="translate(-286,2) scale(1,1)"><g><path fill="none" stroke="none"/><text fill="#000000" stroke="none" font-family="Courier" font-size="13px" font-style="normal" font-weight="normal" text-decoration="none" x="733" y="198.5">power_kw</text></g></g><g transform="translate(-286,2) scale(1,1)"><g><path fill="none" stroke="none"/><text fill="#000000" stroke="none" font-family="Courier" font-size="13px" font-style="normal" font-weight="normal" text-decoration="none" x="733" y="213.5">speed_km_h</text></g></g><g transform="translate(-286,2) scale(1,1)"><g><path fill="none" stroke="none"/><text fill="#000000" stroke="none" font-family="Courier" font-size="13px" font-style="normal" font-weight="normal" text-decoration="none" x="733" y="228.5">voltage_v</text></g></g><g transform="translate(-286,2) scale(1,1)"><g><path fill="none" stroke="none"/><text fill="#000000" stroke="none" font-family="Courier" font-size="13px" font-style="normal" font-weight="normal" text-decoration="none" x="733" y="243.5">distance_m</text></g></g><g transform="translate(-286,2) scale(1,1)"><g><path fill="none" stroke="none"/><text fill="#000000" stroke="none" font-family="Courier" font-size="13px" font-style="normal" font-weight="normal" text-decoration="none" x="733" y="258.5">amb_temp_degc</text></g></g><g transform="translate(-286,2) scale(1,1)"><g><path fill="none" stroke="none"/><text fill="#000000" stroke="none" font-family="Courier" font-size="13px" font-style="normal" font-weight="normal" text-decoration="none" x="733" y="273.5">amb_press_kpa</text></g></g><g transform="translate(-286,2) scale(1,1)"><g><path fill="none" stroke="none"/><text fill="#000000" stroke="none" font-family="Courier" font-size="13px" font-style="normal" font-weight="normal" text-decoration="none" x="733" y="288.5">amb_humid_%rh</text></g></g><g transform="translate(-286,2) scale(1,1)"><rect fill="#C0C0C0" stroke="none" x="327" y="47" width="169" height="195" opacity="0.2"/></g><g transform="translate(-286,2) scale(1,1)"><rect fill="#ffffff" stroke="none" x="320" y="40" width="169" height="195"/></g><g transform="translate(-286,2) scale(1,1)"><path fill="none" stroke="#000000" d="M 320 40 L 489 40 L 489 235 L 320 235 L 320 40 Z Z" stroke-miterlimit="10"/></g><g transform="translate(-286,2) scale(1,1)"><path fill="none" stroke="#000000" d="M 320 78 L 489 78" stroke-miterlimit="10"/></g><g transform="translate(-286,2) scale(1,1)"><g><path fill="none" stroke="none"/><text fill="#000000" stroke="none" font-family="Courier" font-size="13px" font-style="normal" font-weight="normal" text-decoration="none" x="380.5" y="57.5">«Fact»</text></g></g><g transform="translate(-286,2) scale(1,1)"><g><path fill="none" stroke="none"/><text fill="#000000" stroke="none" font-family="Courier" font-size="13px" font-style="normal" font-weight="bold" text-decoration="none" x="340.5" y="72.5">Acquisition Flow</text></g></g><g transform="translate(-286,2) scale(1,1)"><g><path fill="none" stroke="none"/><text fill="#000000" stroke="none" font-family="Courier" font-size="13px" font-style="normal" font-weight="normal" text-decoration="none" x="325" y="95.5">row_id</text></g></g><g transform="translate(-286,2) scale(1,1)"><g><path fill="none" stroke="none"/><text fill="#000000" stroke="none" font-family="Courier" font-size="13px" font-style="normal" font-weight="normal" text-decoration="none" x="325" y="110.5">test_id</text></g></g><g transform="translate(-286,2) scale(1,1)"><g><path fill="none" stroke="none"/><text fill="#000000" stroke="none" font-family="Courier" font-size="13px" font-style="normal" font-weight="normal" text-decoration="none" x="325" y="125.5">date_key</text></g></g><g transform="translate(-286,2) scale(1,1)"><g><path fill="none" stroke="none"/><text fill="#000000" stroke="none" font-family="Courier" font-size="13px" font-style="normal" font-weight="normal" text-decoration="none" x="325" y="140.5">step_key</text></g></g><g transform="translate(-286,2) scale(1,1)"><g><path fill="none" stroke="none"/><text fill="#000000" stroke="none" font-family="Courier" font-size="13px" font-style="normal" font-weight="normal" text-decoration="none" x="325" y="155.5">km_key</text></g></g><g transform="translate(-286,2) scale(1,1)"><g><path fill="none" stroke="none"/><text fill="#000000" stroke="none" font-family="Courier" font-size="13px" font-style="normal" font-weight="normal" text-decoration="none" x="325" y="170.5">a_f</text></g></g><g transform="translate(-286,2) scale(1,1)"><g><path fill="none" stroke="none"/><text fill="#000000" stroke="none" font-family="Courier" font-size="13px" font-style="normal" font-weight="normal" text-decoration="none" x="325" y="185.5">exh_flow_corr_m3_min</text></g></g><g transform="translate(-286,2) scale(1,1)"><g><path fill="none" stroke="none"/><text fill="#000000" stroke="none" font-family="Courier" font-size="13px" font-style="normal" font-weight="normal" text-decoration="none" x="325" y="200.5">exh_flow_corr_m3_s</text></g></g><g transform="translate(-286,2) scale(1,1)"><g><path fill="none" stroke="none"/><text fill="#000000" stroke="none" font-family="Courier" font-size="13px" font-style="normal" font-weight="normal" text-decoration="none" x="325" y="215.5">exh_temp_degc</text></g></g><g transform="translate(-286,2) scale(1,1)"><g><path fill="none" stroke="none"/><text fill="#000000" stroke="none" font-family="Courier" font-size="13px" font-style="normal" font-weight="normal" text-decoration="none" x="325" y="230.5">exh_press_kpa</text></g></g><g transform="translate(-286,2) scale(1,1)"><rect fill="#C0C0C0" stroke="none" x="695" y="679" width="177" height="225" opacity="0.2"/></g><g transform="translate(-286,2) scale(1,1)"><rect fill="#ffffff" stroke="none" x="688" y="672" width="177" height="225"/></g><g transform="translate(-286,2) scale(1,1)"><path fill="none" stroke="#000000" d="M 688 672 L 865 672 L 865 897 L 688 897 L 688 672 Z Z" stroke-miterlimit="10"/></g><g transform="translate(-286,2) scale(1,1)"><path fill="none" stroke="#000000" d="M 688 710 L 865 710" stroke-miterlimit="10"/></g><g transform="translate(-286,2) scale(1,1)"><g><path fill="none" stroke="none"/><text fill="#000000" stroke="none" font-family="Courier" font-size="13px" font-style="normal" font-weight="normal" text-decoration="none" x="752.5" y="689.5">«Fact»</text></g></g><g transform="translate(-286,2) scale(1,1)"><g><path fill="none" stroke="none"/><text fill="#000000" stroke="none" font-family="Courier" font-size="13px" font-style="normal" font-weight="bold" text-decoration="none" x="692.5" y="704.5">Acquisition Particles</text></g></g><g transform="translate(-286,2) scale(1,1)"><g><path fill="none" stroke="none"/><text fill="#000000" stroke="none" font-family="Courier" font-size="13px" font-style="normal" font-weight="normal" text-decoration="none" x="693" y="727.5">row_id</text></g></g><g transform="translate(-286,2) scale(1,1)"><g><path fill="none" stroke="none"/><text fill="#000000" stroke="none" font-family="Courier" font-size="13px" font-style="normal" font-weight="normal" text-decoration="none" x="693" y="742.5">test_id</text></g></g><g transform="translate(-286,2) scale(1,1)"><g><path fill="none" stroke="none"/><text fill="#000000" stroke="none" font-family="Courier" font-size="13px" font-style="normal" font-weight="normal" text-decoration="none" x="693" y="757.5">date_key</text></g></g><g transform="translate(-286,2) scale(1,1)"><g><path fill="none" stroke="none"/><text fill="#000000" stroke="none" font-family="Courier" font-size="13px" font-style="normal" font-weight="normal" text-decoration="none" x="693" y="772.5">step_key</text></g></g><g transform="translate(-286,2) scale(1,1)"><g><path fill="none" stroke="none"/><text fill="#000000" stroke="none" font-family="Courier" font-size="13px" font-style="normal" font-weight="normal" text-decoration="none" x="693" y="787.5">km_key</text></g></g><g transform="translate(-286,2) scale(1,1)"><g><path fill="none" stroke="none"/><text fill="#000000" stroke="none" font-family="Courier" font-size="13px" font-style="normal" font-weight="normal" text-decoration="none" x="693" y="802.5">h2o_conc_vol%</text></g></g><g transform="translate(-286,2) scale(1,1)"><g><path fill="none" stroke="none"/><text fill="#000000" stroke="none" font-family="Courier" font-size="13px" font-style="normal" font-weight="normal" text-decoration="none" x="693" y="817.5">co_mass_g_s</text></g></g><g transform="translate(-286,2) scale(1,1)"><g><path fill="none" stroke="none"/><text fill="#000000" stroke="none" font-family="Courier" font-size="13px" font-style="normal" font-weight="normal" text-decoration="none" x="693" y="832.5">co2_mass_g_s</text></g></g><g transform="translate(-286,2) scale(1,1)"><g><path fill="none" stroke="none"/><text fill="#000000" stroke="none" font-family="Courier" font-size="13px" font-style="normal" font-weight="normal" text-decoration="none" x="693" y="847.5">nox_mass_g_s</text></g></g><g transform="translate(-286,2) scale(1,1)"><g><path fill="none" stroke="none"/><text fill="#000000" stroke="none" font-family="Courier" font-size="13px" font-style="normal" font-weight="normal" text-decoration="none" x="693" y="862.5">co_conc_vol%</text></g></g><g transform="translate(-286,2) scale(1,1)"><g><path fill="none" stroke="none"/><text fill="#000000" stroke="none" font-family="Courier" font-size="13px" font-style="normal" font-weight="normal" text-decoration="none" x="693" y="877.5">co2_conc_vol%</text></g></g><g transform="translate(-286,2) scale(1,1)"><g><path fill="none" stroke="none"/><text fill="#000000" stroke="none" font-family="Courier" font-size="13px" font-style="normal" font-weight="normal" text-decoration="none" x="693" y="892.5">nox_conc_ppm</text></g></g><g transform="translate(-286,2) scale(1,1)"><rect fill="#C0C0C0" stroke="none" x="303" y="647" width="257" height="390" opacity="0.2"/></g><g transform="translate(-286,2) scale(1,1)"><rect fill="#ffffff" stroke="none" x="296" y="640" width="257" height="390"/></g><g transform="translate(-286,2) scale(1,1)"><path fill="none" stroke="#000000" d="M 296 640 L 553 640 L 553 1030 L 296 1030 L 296 640 Z Z" stroke-miterlimit="10"/></g><g transform="translate(-286,2) scale(1,1)"><path fill="none" stroke="#000000" d="M 296 678 L 553 678" stroke-miterlimit="10"/></g><g transform="translate(-286,2) scale(1,1)"><g><path fill="none" stroke="none"/><text fill="#000000" stroke="none" font-family="Courier" font-size="13px" font-style="normal" font-weight="normal" text-decoration="none" x="400.5" y="657.5">«Fact»</text></g></g><g transform="translate(-286,2) scale(1,1)"><g><path fill="none" stroke="none"/><text fill="#000000" stroke="none" font-family="Courier" font-size="13px" font-style="normal" font-weight="bold" text-decoration="none" x="364.5" y="672.5">Acquisition ECU</text></g></g><g transform="translate(-286,2) scale(1,1)"><g><path fill="none" stroke="none"/><text fill="#000000" stroke="none" font-family="Courier" font-size="13px" font-style="normal" font-weight="normal" text-decoration="none" x="301" y="695.5">row_id</text></g></g><g transform="translate(-286,2) scale(1,1)"><g><path fill="none" stroke="none"/><text fill="#000000" stroke="none" font-family="Courier" font-size="13px" font-style="normal" font-weight="normal" text-decoration="none" x="301" y="710.5">test_id</text></g></g><g transform="translate(-286,2) scale(1,1)"><g><path fill="none" stroke="none"/><text fill="#000000" stroke="none" font-family="Courier" font-size="13px" font-style="normal" font-weight="normal" text-decoration="none" x="301" y="725.5">date_key</text></g></g><g transform="translate(-286,2) scale(1,1)"><g><path fill="none" stroke="none"/><text fill="#000000" stroke="none" font-family="Courier" font-size="13px" font-style="normal" font-weight="normal" text-decoration="none" x="301" y="740.5">step_key</text></g></g><g transform="translate(-286,2) scale(1,1)"><g><path fill="none" stroke="none"/><text fill="#000000" stroke="none" font-family="Courier" font-size="13px" font-style="normal" font-weight="normal" text-decoration="none" x="301" y="755.5">km_key</text></g></g><g transform="translate(-286,2) scale(1,1)"><g><path fill="none" stroke="none"/><text fill="#000000" stroke="none" font-family="Courier" font-size="13px" font-style="normal" font-weight="normal" text-decoration="none" x="301" y="770.5">ecu_engine_coolant_temp_degc</text></g></g><g transform="translate(-286,2) scale(1,1)"><g><path fill="none" stroke="none"/><text fill="#000000" stroke="none" font-family="Courier" font-size="13px" font-style="normal" font-weight="normal" text-decoration="none" x="301" y="785.5">ecu_fuel_pressure_kpa</text></g></g><g transform="translate(-286,2) scale(1,1)"><g><path fill="none" stroke="none"/><text fill="#000000" stroke="none" font-family="Courier" font-size="13px" font-style="normal" font-weight="normal" text-decoration="none" x="301" y="800.5">ecu_engine_rpm</text></g></g><g transform="translate(-286,2) scale(1,1)"><g><path fill="none" stroke="none"/><text fill="#000000" stroke="none" font-family="Courier" font-size="13px" font-style="normal" font-weight="normal" text-decoration="none" x="301" y="815.5">ecu_vehicle_speed_km_h</text></g></g><g transform="translate(-286,2) scale(1,1)"><g><path fill="none" stroke="none"/><text fill="#000000" stroke="none" font-family="Courier" font-size="13px" font-style="normal" font-weight="normal" text-decoration="none" x="301" y="830.5">ecu_vehicle_speed_m_s</text></g></g><g transform="translate(-286,2) scale(1,1)"><g><path fill="none" stroke="none"/><text fill="#000000" stroke="none" font-family="Courier" font-size="13px" font-style="normal" font-weight="normal" text-decoration="none" x="301" y="845.5">ecu_intake_air_temp_degc</text></g></g><g transform="translate(-286,2) scale(1,1)"><g><path fill="none" stroke="none"/><text fill="#000000" stroke="none" font-family="Courier" font-size="13px" font-style="normal" font-weight="normal" text-decoration="none" x="301" y="860.5">ecu_maf_air_flow_rate_grams_s</text></g></g><g transform="translate(-286,2) scale(1,1)"><g><path fill="none" stroke="none"/><text fill="#000000" stroke="none" font-family="Courier" font-size="13px" font-style="normal" font-weight="normal" text-decoration="none" x="301" y="875.5">ecu_maf_air_flow_rate_m3_s</text></g></g><g transform="translate(-286,2) scale(1,1)"><g><path fill="none" stroke="none"/><text fill="#000000" stroke="none" font-family="Courier" font-size="13px" font-style="normal" font-weight="normal" text-decoration="none" x="301" y="890.5">ecu_fuel_rail_pressure_kpa</text></g></g><g transform="translate(-286,2) scale(1,1)"><g><path fill="none" stroke="none"/><text fill="#000000" stroke="none" font-family="Courier" font-size="13px" font-style="normal" font-weight="normal" text-decoration="none" x="301" y="905.5">ecu_diesel_rail_pressure_kpa</text></g></g><g transform="translate(-286,2) scale(1,1)"><g><path fill="none" stroke="none"/><text fill="#000000" stroke="none" font-family="Courier" font-size="13px" font-style="normal" font-weight="normal" text-decoration="none" x="301" y="920.5">ecu_commanded_egr_%</text></g></g><g transform="translate(-286,2) scale(1,1)"><g><path fill="none" stroke="none"/><text fill="#000000" stroke="none" font-family="Courier" font-size="13px" font-style="normal" font-weight="normal" text-decoration="none" x="301" y="935.5">ecu_barometric_pressure_kpa</text></g></g><g transform="translate(-286,2) scale(1,1)"><g><path fill="none" stroke="none"/><text fill="#000000" stroke="none" font-family="Courier" font-size="13px" font-style="normal" font-weight="normal" text-decoration="none" x="301" y="950.5">ecu_ambient_air_temp_degc</text></g></g><g transform="translate(-286,2) scale(1,1)"><g><path fill="none" stroke="none"/><text fill="#000000" stroke="none" font-family="Courier" font-size="13px" font-style="normal" font-weight="normal" text-decoration="none" x="301" y="965.5">ecu_fuel_rail_pressure_time_kpa</text></g></g><g transform="translate(-286,2) scale(1,1)"><g><path fill="none" stroke="none"/><text fill="#000000" stroke="none" font-family="Courier" font-size="13px" font-style="normal" font-weight="normal" text-decoration="none" x="301" y="980.5">ecu_engine_oil_temp_degc</text></g></g><g transform="translate(-286,2) scale(1,1)"><g><path fill="none" stroke="none"/><text fill="#000000" stroke="none" font-family="Courier" font-size="13px" font-style="normal" font-weight="normal" text-decoration="none" x="301" y="995.5">ecu_engine_fuel_rate_l_h</text></g></g><g transform="translate(-286,2) scale(1,1)"><g><path fill="none" stroke="none"/><text fill="#000000" stroke="none" font-family="Courier" font-size="13px" font-style="normal" font-weight="normal" text-decoration="none" x="301" y="1010.5">ecu_actual_engine_%</text></g></g><g transform="translate(-286,2) scale(1,1)"><g><path fill="none" stroke="none"/><text fill="#000000" stroke="none" font-family="Courier" font-size="13px" font-style="normal" font-weight="normal" text-decoration="none" x="301" y="1025.5">ecu_engine_reference_torque_nm</text></g></g><g transform="translate(-286,2) scale(1,1)"><path fill="none" stroke="#000000" d="M 752 293 L 752 384" stroke-miterlimit="10"/></g><g transform="translate(-286,2) scale(1,1)"><path fill="none" stroke="#000000" d="M 624 384 L 624 240 L 728 240" stroke-miterlimit="10"/></g><g transform="translate(-286,2) scale(1,1)"><path fill="none" stroke="#000000" d="M 520 384 L 520 200 L 728 200" stroke-miterlimit="10"/></g><g transform="translate(-286,2) scale(1,1)"><path fill="none" stroke="#000000" d="M 744 489 L 744 672" stroke-miterlimit="10"/></g><g transform="translate(-286,2) scale(1,1)"><path fill="none" stroke="#000000" d="M 624 488 L 624 768 L 688 768" stroke-miterlimit="10"/></g><g transform="translate(-286,2) scale(1,1)"><path fill="none" stroke="#000000" d="M 472 384 L 472 235" stroke-miterlimit="10"/></g><g transform="translate(-286,2) scale(1,1)"><path fill="none" stroke="#000000" d="M 528 489 L 528 600 L 712 600 L 712 672" stroke-miterlimit="10"/></g><g transform="translate(-286,2) scale(1,1)"><path fill="none" stroke="#000000" d="M 592 384 L 592 112 L 489 112" stroke-miterlimit="10"/></g><g transform="translate(-286,2) scale(1,1)"><path fill="none" stroke="#000000" d="M 688 384 L 688 64 L 489 64" stroke-miterlimit="10"/></g><g transform="translate(-286,2) scale(1,1)"><path fill="none" stroke="#000000" d="M 472 489 L 472 640" stroke-miterlimit="10"/></g><g transform="translate(-286,2) scale(1,1)"><path fill="none" stroke="#000000" d="M 600 488 L 600 768 L 553 768" stroke-miterlimit="10"/></g><g transform="translate(-286,2) scale(1,1)"><path fill="none" stroke="#000000" d="M 688 489 L 688 552 L 496 552 L 496 640" stroke-miterlimit="10"/></g></g></svg>