<svg version="1.1" xmlns="http://www.w3.org/2000/svg" xmlns:xlink="http://www.w3.org/1999/xlink" width="947" height="813"><defs/><g><g transform="translate(-126,-22) scale(1,1)"><rect fill="#C0C0C0" stroke="none" x="431" y="39" width="97" height="105" opacity="0.2"/></g><g transform="translate(-126,-22) scale(1,1)"><rect fill="#ffffff" stroke="none" x="424" y="32" width="97" height="105"/></g><g transform="translate(-126,-22) scale(1,1)"><path fill="none" stroke="#000000" d="M 424 32 L 521 32 L 521 137 L 424 137 L 424 32 Z Z" stroke-miterlimit="10"/></g><g transform="translate(-126,-22) scale(1,1)"><path fill="none" stroke="#000000" d="M 424 70 L 521 70" stroke-miterlimit="10"/></g><g transform="translate(-126,-22) scale(1,1)"><g><path fill="none" stroke="none"/><text fill="#000000" stroke="none" font-family="Courier" font-size="13px" font-style="normal" font-weight="normal" text-decoration="none" x="428.5" y="49.5">«Hierarchy»</text></g></g><g transform="translate(-126,-22) scale(1,1)"><g><path fill="none" stroke="none"/><text fill="#000000" stroke="none" font-family="Courier" font-size="13px" font-style="normal" font-weight="bold" text-decoration="none" x="456.5" y="64.5">Date</text></g></g><g transform="translate(-126,-22) scale(1,1)"><g><path fill="none" stroke="none"/><text fill="#000000" stroke="none" font-family="Courier" font-size="13px" font-style="normal" font-weight="normal" text-decoration="none" x="429" y="87.5">date_key</text></g></g><g transform="translate(-126,-22) scale(1,1)"><g><path fill="none" stroke="none"/><text fill="#000000" stroke="none" font-family="Courier" font-size="13px" font-style="normal" font-weight="normal" text-decoration="none" x="429" y="102.5">month</text></g></g><g transform="translate(-126,-22) scale(1,1)"><g><path fill="none" stroke="none"/><text fill="#000000" stroke="none" font-family="Courier" font-size="13px" font-style="normal" font-weight="normal" text-decoration="none" x="429" y="117.5">season</text></g></g><g transform="translate(-126,-22) scale(1,1)"><g><path fill="none" stroke="none"/><text fill="#000000" stroke="none" font-family="Courier" font-size="13px" font-style="normal" font-weight="normal" text-decoration="none" x="429" y="132.5">year</text></g></g><g transform="translate(-126,-22) scale(1,1)"><rect fill="#C0C0C0" stroke="none" x="711" y="39" width="97" height="105" opacity="0.2"/></g><g transform="translate(-126,-22) scale(1,1)"><rect fill="#ffffff" stroke="none" x="704" y="32" width="97" height="105"/></g><g transform="translate(-126,-22) scale(1,1)"><path fill="none" stroke="#000000" d="M 704 32 L 801 32 L 801 137 L 704 137 L 704 32 Z Z" stroke-miterlimit="10"/></g><g transform="translate(-126,-22) scale(1,1)"><path fill="none" stroke="#000000" d="M 704 70 L 801 70" stroke-miterlimit="10"/></g><g transform="translate(-126,-22) scale(1,1)"><g><path fill="none" stroke="none"/><text fill="#000000" stroke="none" font-family="Courier" font-size="13px" font-style="normal" font-weight="normal" text-decoration="none" x="708.5" y="49.5">«Hierarchy»</text></g></g><g transform="translate(-126,-22) scale(1,1)"><g><path fill="none" stroke="none"/><text fill="#000000" stroke="none" font-family="Courier" font-size="13px" font-style="normal" font-weight="bold" text-decoration="none" x="720.5" y="64.5">Distance</text></g></g><g transform="translate(-126,-22) scale(1,1)"><g><path fill="none" stroke="none"/><text fill="#000000" stroke="none" font-family="Courier" font-size="13px" font-style="normal" font-weight="normal" text-decoration="none" x="709" y="87.5">1km_key</text></g></g><g transform="translate(-126,-22) scale(1,1)"><g><path fill="none" stroke="none"/><text fill="#000000" stroke="none" font-family="Courier" font-size="13px" font-style="normal" font-weight="normal" text-decoration="none" x="709" y="102.5">5km</text></g></g><g transform="translate(-126,-22) scale(1,1)"><g><path fill="none" stroke="none"/><text fill="#000000" stroke="none" font-family="Courier" font-size="13px" font-style="normal" font-weight="normal" text-decoration="none" x="709" y="117.5">25km</text></g></g><g transform="translate(-126,-22) scale(1,1)"><g><path fill="none" stroke="none"/><text fill="#000000" stroke="none" font-family="Courier" font-size="13px" font-style="normal" font-weight="normal" text-decoration="none" x="709" y="132.5">50km</text></g></g><g transform="translate(-126,-22) scale(1,1)"><rect fill="#C0C0C0" stroke="none" x="567" y="55" width="97" height="90" opacity="0.2"/></g><g transform="translate(-126,-22) scale(1,1)"><rect fill="#ffffff" stroke="none" x="560" y="48" width="97" height="90"/></g><g transform="translate(-126,-22) scale(1,1)"><path fill="none" stroke="#000000" d="M 560 48 L 657 48 L 657 138 L 560 138 L 560 48 Z Z" stroke-miterlimit="10"/></g><g transform="translate(-126,-22) scale(1,1)"><path fill="none" stroke="#000000" d="M 560 86 L 657 86" stroke-miterlimit="10"/></g><g transform="translate(-126,-22) scale(1,1)"><g><path fill="none" stroke="none"/><text fill="#000000" stroke="none" font-family="Courier" font-size="13px" font-style="normal" font-weight="normal" text-decoration="none" x="564.5" y="65.5">«Hierarchy»</text></g></g><g transform="translate(-126,-22) scale(1,1)"><g><path fill="none" stroke="none"/><text fill="#000000" stroke="none" font-family="Courier" font-size="13px" font-style="normal" font-weight="bold" text-decoration="none" x="592.5" y="80.5">Time</text></g></g><g transform="translate(-126,-22) scale(1,1)"><g><path fill="none" stroke="none"/><text fill="#000000" stroke="none" font-family="Courier" font-size="13px" font-style="normal" font-weight="normal" text-decoration="none" x="565" y="103.5">step_key</text></g></g><g transform="translate(-126,-22) scale(1,1)"><g><path fill="none" stroke="none"/><text fill="#000000" stroke="none" font-family="Courier" font-size="13px" font-style="normal" font-weight="normal" text-decoration="none" x="565" y="118.5">minute</text></g></g><g transform="translate(-126,-22) scale(1,1)"><g><path fill="none" stroke="none"/><text fill="#000000" stroke="none" font-family="Courier" font-size="13px" font-style="normal" font-weight="normal" text-decoration="none" x="565" y="133.5">hour</text></g></g><g transform="translate(-126,-22) scale(1,1)"><rect fill="#C0C0C0" stroke="none" x="855" y="495" width="215" height="285" opacity="0.2"/></g><g transform="translate(-126,-22) scale(1,1)"><rect fill="#ffffff" stroke="none" x="848" y="488" width="215" height="285"/></g><g transform="translate(-126,-22) scale(1,1)"><path fill="none" stroke="#000000" d="M 848 488 L 1063 488 L 1063 773 L 848 773 L 848 488 Z Z" stroke-miterlimit="10"/></g><g transform="translate(-126,-22) scale(1,1)"><path fill="none" stroke="#000000" d="M 848 526 L 1063 526" stroke-miterlimit="10"/></g><g transform="translate(-126,-22) scale(1,1)"><g><path fill="none" stroke="none"/><text fill="#000000" stroke="none" font-family="Arial" font-size="13px" font-style="normal" font-weight="normal" text-decoration="none" x="935.5" y="505.5">«Fact»</text></g></g><g transform="translate(-126,-22) scale(1,1)"><g><path fill="none" stroke="none"/><text fill="#000000" stroke="none" font-family="Arial" font-size="13px" font-style="normal" font-weight="bold" text-decoration="none" x="899" y="520.5">Acquisition_general</text></g></g><g transform="translate(-126,-22) scale(1,1)"><g><path fill="none" stroke="none"/><text fill="#000000" stroke="none" font-family="Arial" font-size="13px" font-style="normal" font-weight="normal" text-decoration="none" x="853" y="543.5">row_id</text></g></g><g transform="translate(-126,-22) scale(1,1)"><g><path fill="none" stroke="none"/><text fill="#000000" stroke="none" font-family="Arial" font-size="13px" font-style="normal" font-weight="normal" text-decoration="none" x="853" y="558.5">test_id</text></g></g><g transform="translate(-126,-22) scale(1,1)"><g><path fill="none" stroke="none"/><text fill="#000000" stroke="none" font-family="Arial" font-size="13px" font-style="normal" font-weight="normal" text-decoration="none" x="853" y="573.5">amb_temp_degC</text></g></g><g transform="translate(-126,-22) scale(1,1)"><g><path fill="none" stroke="none"/><text fill="#000000" stroke="none" font-family="Arial" font-size="13px" font-style="normal" font-weight="normal" text-decoration="none" x="853" y="588.5">amb_press_kPa</text></g></g><g transform="translate(-126,-22) scale(1,1)"><g><path fill="none" stroke="none"/><text fill="#000000" stroke="none" font-family="Arial" font-size="13px" font-style="normal" font-weight="normal" text-decoration="none" x="853" y="603.5">amb_humid_RH</text></g></g><g transform="translate(-126,-22) scale(1,1)"><g><path fill="none" stroke="none"/><text fill="#000000" stroke="none" font-family="Arial" font-size="13px" font-style="normal" font-weight="normal" text-decoration="none" x="853" y="618.5">altitude_m</text></g></g><g transform="translate(-126,-22) scale(1,1)"><g><path fill="none" stroke="none"/><text fill="#000000" stroke="none" font-family="Arial" font-size="13px" font-style="normal" font-weight="normal" text-decoration="none" x="853" y="633.5">velocity_km_h</text></g></g><g transform="translate(-126,-22) scale(1,1)"><g><path fill="none" stroke="none"/><text fill="#000000" stroke="none" font-family="Arial" font-size="13px" font-style="normal" font-weight="normal" text-decoration="none" x="853" y="648.5">battery_V</text></g></g><g transform="translate(-126,-22) scale(1,1)"><g><path fill="none" stroke="none"/><text fill="#000000" stroke="none" font-family="Arial" font-size="13px" font-style="normal" font-weight="normal" text-decoration="none" x="853" y="663.5">fuel_g_s</text></g></g><g transform="translate(-126,-22) scale(1,1)"><g><path fill="none" stroke="none"/><text fill="#000000" stroke="none" font-family="Arial" font-size="13px" font-style="normal" font-weight="normal" text-decoration="none" x="853" y="678.5">power_kW</text></g></g><g transform="translate(-126,-22) scale(1,1)"><g><path fill="none" stroke="none"/><text fill="#000000" stroke="none" font-family="Arial" font-size="13px" font-style="normal" font-weight="normal" text-decoration="none" x="853" y="693.5">speed_km_h</text></g></g><g transform="translate(-126,-22) scale(1,1)"><g><path fill="none" stroke="none"/><text fill="#000000" stroke="none" font-family="Arial" font-size="13px" font-style="normal" font-weight="normal" text-decoration="none" x="853" y="708.5">voltage_V</text></g></g><g transform="translate(-126,-22) scale(1,1)"><g><path fill="none" stroke="none"/><text fill="#000000" stroke="none" font-family="Arial" font-size="13px" font-style="normal" font-weight="normal" text-decoration="none" x="853" y="723.5">distance_m</text></g></g><g transform="translate(-126,-22) scale(1,1)"><rect fill="#C0C0C0" stroke="none" x="143" y="487" width="143.392578125" height="195" opacity="0.2"/></g><g transform="translate(-126,-22) scale(1,1)"><rect fill="#ffffff" stroke="none" x="136" y="480" width="143.392578125" height="195"/></g><g transform="translate(-126,-22) scale(1,1)"><path fill="none" stroke="#000000" d="M 136 480 L 279.392578125 480 L 279.392578125 675 L 136 675 L 136 480 Z Z" stroke-miterlimit="10"/></g><g transform="translate(-126,-22) scale(1,1)"><path fill="none" stroke="#000000" d="M 136 518 L 279.392578125 518" stroke-miterlimit="10"/></g><g transform="translate(-126,-22) scale(1,1)"><g><path fill="none" stroke="none"/><text fill="#000000" stroke="none" font-family="Arial" font-size="13px" font-style="normal" font-weight="normal" text-decoration="none" x="187.6962890625" y="497.5">«Fact»</text></g></g><g transform="translate(-126,-22) scale(1,1)"><g><path fill="none" stroke="none"/><text fill="#000000" stroke="none" font-family="Arial" font-size="13px" font-style="normal" font-weight="bold" text-decoration="none" x="161.1962890625" y="512.5">Acquisition_flow</text></g></g><g transform="translate(-126,-22) scale(1,1)"><g><path fill="none" stroke="none"/><text fill="#000000" stroke="none" font-family="Arial" font-size="13px" font-style="normal" font-weight="normal" text-decoration="none" x="141" y="535.5">row_id</text></g></g><g transform="translate(-126,-22) scale(1,1)"><g><path fill="none" stroke="none"/><text fill="#000000" stroke="none" font-family="Arial" font-size="13px" font-style="normal" font-weight="normal" text-decoration="none" x="141" y="550.5">test_id</text></g></g><g transform="translate(-126,-22) scale(1,1)"><g><path fill="none" stroke="none"/><text fill="#000000" stroke="none" font-family="Arial" font-size="13px" font-style="normal" font-weight="normal" text-decoration="none" x="141" y="565.5">a_f</text></g></g><g transform="translate(-126,-22) scale(1,1)"><g><path fill="none" stroke="none"/><text fill="#000000" stroke="none" font-family="Arial" font-size="13px" font-style="normal" font-weight="normal" text-decoration="none" x="141" y="580.5">exh_flow_corr_m3_min</text></g></g><g transform="translate(-126,-22) scale(1,1)"><g><path fill="none" stroke="none"/><text fill="#000000" stroke="none" font-family="Arial" font-size="13px" font-style="normal" font-weight="normal" text-decoration="none" x="141" y="595.5">exh_flow_corr_m3_s</text></g></g><g transform="translate(-126,-22) scale(1,1)"><g><path fill="none" stroke="none"/><text fill="#000000" stroke="none" font-family="Arial" font-size="13px" font-style="normal" font-weight="normal" text-decoration="none" x="141" y="610.5">exh_Temp_degC</text></g></g><g transform="translate(-126,-22) scale(1,1)"><g><path fill="none" stroke="none"/><text fill="#000000" stroke="none" font-family="Arial" font-size="13px" font-style="normal" font-weight="normal" text-decoration="none" x="141" y="625.5">exh_press_kPa</text></g></g><g transform="translate(-126,-22) scale(1,1)"><rect fill="#C0C0C0" stroke="none" x="639" y="487" width="171.60791015625" height="231" opacity="0.2"/></g><g transform="translate(-126,-22) scale(1,1)"><rect fill="#ffffff" stroke="none" x="632" y="480" width="171.60791015625" height="231"/></g><g transform="translate(-126,-22) scale(1,1)"><path fill="none" stroke="#000000" d="M 632 480 L 803.60791015625 480 L 803.60791015625 711 L 632 711 L 632 480 Z Z" stroke-miterlimit="10"/></g><g transform="translate(-126,-22) scale(1,1)"><path fill="none" stroke="#000000" d="M 632 518 L 803.60791015625 518" stroke-miterlimit="10"/></g><g transform="translate(-126,-22) scale(1,1)"><g><path fill="none" stroke="none"/><text fill="#000000" stroke="none" font-family="Arial" font-size="13px" font-style="normal" font-weight="normal" text-decoration="none" x="697.803955078125" y="497.5">«Fact»</text></g></g><g transform="translate(-126,-22) scale(1,1)"><g><path fill="none" stroke="none"/><text fill="#000000" stroke="none" font-family="Arial" font-size="13px" font-style="normal" font-weight="bold" text-decoration="none" x="657.803955078125" y="512.5">Acquisition_particles</text></g></g><g transform="translate(-126,-22) scale(1,1)"><g><path fill="none" stroke="none"/><text fill="#000000" stroke="none" font-family="Arial" font-size="13px" font-style="normal" font-weight="normal" text-decoration="none" x="637" y="535.5">row_id</text></g></g><g transform="translate(-126,-22) scale(1,1)"><g><path fill="none" stroke="none"/><text fill="#000000" stroke="none" font-family="Arial" font-size="13px" font-style="normal" font-weight="normal" text-decoration="none" x="637" y="550.5">test_id</text></g></g><g transform="translate(-126,-22) scale(1,1)"><g><path fill="none" stroke="none"/><text fill="#000000" stroke="none" font-family="Arial" font-size="13px" font-style="normal" font-weight="normal" text-decoration="none" x="637" y="565.5">co_concentration_vol_per</text></g></g><g transform="translate(-126,-22) scale(1,1)"><g><path fill="none" stroke="none"/><text fill="#000000" stroke="none" font-family="Arial" font-size="13px" font-style="normal" font-weight="normal" text-decoration="none" x="637" y="580.5">co2_concentration_vol_perc</text></g></g><g transform="translate(-126,-22) scale(1,1)"><g><path fill="none" stroke="none"/><text fill="#000000" stroke="none" font-family="Arial" font-size="13px" font-style="normal" font-weight="normal" text-decoration="none" x="637" y="595.5">nox_concentration_ppm</text></g></g><g transform="translate(-126,-22) scale(1,1)"><g><path fill="none" stroke="none"/><text fill="#000000" stroke="none" font-family="Arial" font-size="13px" font-style="normal" font-weight="normal" text-decoration="none" x="637" y="610.5">h2O_conc_vol_perc</text></g></g><g transform="translate(-126,-22) scale(1,1)"><g><path fill="none" stroke="none"/><text fill="#000000" stroke="none" font-family="Arial" font-size="13px" font-style="normal" font-weight="normal" text-decoration="none" x="637" y="625.5">co_mass_g_s</text></g></g><g transform="translate(-126,-22) scale(1,1)"><g><path fill="none" stroke="none"/><text fill="#000000" stroke="none" font-family="Arial" font-size="13px" font-style="normal" font-weight="normal" text-decoration="none" x="637" y="640.5">co2_mass_g_s</text></g></g><g transform="translate(-126,-22) scale(1,1)"><g><path fill="none" stroke="none"/><text fill="#000000" stroke="none" font-family="Arial" font-size="13px" font-style="normal" font-weight="normal" text-decoration="none" x="637" y="655.5">nox_mass_g_s</text></g></g><g transform="translate(-126,-22) scale(1,1)"><rect fill="#C0C0C0" stroke="none" x="327" y="487" width="261.966796875" height="345" opacity="0.2"/></g><g transform="translate(-126,-22) scale(1,1)"><rect fill="#ffffff" stroke="none" x="320" y="480" width="261.966796875" height="345"/></g><g transform="translate(-126,-22) scale(1,1)"><path fill="none" stroke="#000000" d="M 320 480 L 581.966796875 480 L 581.966796875 825 L 320 825 L 320 480 Z Z" stroke-miterlimit="10"/></g><g transform="translate(-126,-22) scale(1,1)"><path fill="none" stroke="#000000" d="M 320 518 L 581.966796875 518" stroke-miterlimit="10"/></g><g transform="translate(-126,-22) scale(1,1)"><g><path fill="none" stroke="none"/><text fill="#000000" stroke="none" font-family="Arial" font-size="13px" font-style="normal" font-weight="normal" text-decoration="none" x="430.9833984375" y="497.5">«Fact»</text></g></g><g transform="translate(-126,-22) scale(1,1)"><g><path fill="none" stroke="none"/><text fill="#000000" stroke="none" font-family="Arial" font-size="13px" font-style="normal" font-weight="bold" text-decoration="none" x="404.9833984375" y="512.5">Acquisition_ecu</text></g></g><g transform="translate(-126,-22) scale(1,1)"><g><path fill="none" stroke="none"/><text fill="#000000" stroke="none" font-family="Arial" font-size="13px" font-style="normal" font-weight="normal" text-decoration="none" x="325" y="535.5">row_id</text></g></g><g transform="translate(-126,-22) scale(1,1)"><g><path fill="none" stroke="none"/><text fill="#000000" stroke="none" font-family="Arial" font-size="13px" font-style="normal" font-weight="normal" text-decoration="none" x="325" y="550.5">test_id</text></g></g><g transform="translate(-126,-22) scale(1,1)"><g><path fill="none" stroke="none"/><text fill="#000000" stroke="none" font-family="Arial" font-size="13px" font-style="normal" font-weight="normal" text-decoration="none" x="325" y="565.5">engine_coolant_temperature_by_ecu_degC</text></g></g><g transform="translate(-126,-22) scale(1,1)"><g><path fill="none" stroke="none"/><text fill="#000000" stroke="none" font-family="Arial" font-size="13px" font-style="normal" font-weight="normal" text-decoration="none" x="325" y="580.5">fuel_pressure_by_ecu_kPa</text></g></g><g transform="translate(-126,-22) scale(1,1)"><g><path fill="none" stroke="none"/><text fill="#000000" stroke="none" font-family="Arial" font-size="13px" font-style="normal" font-weight="normal" text-decoration="none" x="325" y="595.5">engine_RPM_by_ecu_rpm</text></g></g><g transform="translate(-126,-22) scale(1,1)"><g><path fill="none" stroke="none"/><text fill="#000000" stroke="none" font-family="Arial" font-size="13px" font-style="normal" font-weight="normal" text-decoration="none" x="325" y="610.5">vehicle_speed_by_ecu_km_h</text></g></g><g transform="translate(-126,-22) scale(1,1)"><g><path fill="none" stroke="none"/><text fill="#000000" stroke="none" font-family="Arial" font-size="13px" font-style="normal" font-weight="normal" text-decoration="none" x="325" y="625.5">vehicle_speed_by_ecu_m_s</text></g></g><g transform="translate(-126,-22) scale(1,1)"><g><path fill="none" stroke="none"/><text fill="#000000" stroke="none" font-family="Arial" font-size="13px" font-style="normal" font-weight="normal" text-decoration="none" x="325" y="640.5">intake_air_temperature_by_ecu_degC</text></g></g><g transform="translate(-126,-22) scale(1,1)"><g><path fill="none" stroke="none"/><text fill="#000000" stroke="none" font-family="Arial" font-size="13px" font-style="normal" font-weight="normal" text-decoration="none" x="325" y="655.5">maf_air_flow_rate_by_ecu_grams_sec</text></g></g><g transform="translate(-126,-22) scale(1,1)"><g><path fill="none" stroke="none"/><text fill="#000000" stroke="none" font-family="Arial" font-size="13px" font-style="normal" font-weight="normal" text-decoration="none" x="325" y="670.5">maf_air_flow_rate_by_ecu_m3_s</text></g></g><g transform="translate(-126,-22) scale(1,1)"><g><path fill="none" stroke="none"/><text fill="#000000" stroke="none" font-family="Arial" font-size="13px" font-style="normal" font-weight="normal" text-decoration="none" x="325" y="685.5">fuel_rail_pressure_by_ecu_kPa</text></g></g><g transform="translate(-126,-22) scale(1,1)"><g><path fill="none" stroke="none"/><text fill="#000000" stroke="none" font-family="Arial" font-size="13px" font-style="normal" font-weight="normal" text-decoration="none" x="325" y="700.5">fuel_rail_pressure_diesel_by_ecu_kPa</text></g></g><g transform="translate(-126,-22) scale(1,1)"><g><path fill="none" stroke="none"/><text fill="#000000" stroke="none" font-family="Arial" font-size="13px" font-style="normal" font-weight="normal" text-decoration="none" x="325" y="715.5">commande_EGR_by_ecu_perc</text></g></g><g transform="translate(-126,-22) scale(1,1)"><g><path fill="none" stroke="none"/><text fill="#000000" stroke="none" font-family="Arial" font-size="13px" font-style="normal" font-weight="normal" text-decoration="none" x="325" y="730.5">barometric_pressure_by_ecu_kPa</text></g></g><g transform="translate(-126,-22) scale(1,1)"><g><path fill="none" stroke="none"/><text fill="#000000" stroke="none" font-family="Arial" font-size="13px" font-style="normal" font-weight="normal" text-decoration="none" x="325" y="745.5">ambient_air_temperature_by_ecu_degC</text></g></g><g transform="translate(-126,-22) scale(1,1)"><g><path fill="none" stroke="none"/><text fill="#000000" stroke="none" font-family="Arial" font-size="13px" font-style="normal" font-weight="normal" text-decoration="none" x="325" y="760.5">fuel_rail_pressure_Time_by_ecu_kPa</text></g></g><g transform="translate(-126,-22) scale(1,1)"><g><path fill="none" stroke="none"/><text fill="#000000" stroke="none" font-family="Arial" font-size="13px" font-style="normal" font-weight="normal" text-decoration="none" x="325" y="775.5">engine_oil_temperature_by_ecu_degC</text></g></g><g transform="translate(-126,-22) scale(1,1)"><g><path fill="none" stroke="none"/><text fill="#000000" stroke="none" font-family="Arial" font-size="13px" font-style="normal" font-weight="normal" text-decoration="none" x="325" y="790.5">engine_fuel_rate_by_ecu_L_h</text></g></g><g transform="translate(-126,-22) scale(1,1)"><g><path fill="none" stroke="none"/><text fill="#000000" stroke="none" font-family="Arial" font-size="13px" font-style="normal" font-weight="normal" text-decoration="none" x="325" y="805.5">actual_engine_by_ecu_perc</text></g></g><g transform="translate(-126,-22) scale(1,1)"><g><path fill="none" stroke="none"/><text fill="#000000" stroke="none" font-family="Arial" font-size="13px" font-style="normal" font-weight="normal" text-decoration="none" x="325" y="820.5">engine_reference_torque_by_ecu_Nm</text></g></g><g transform="translate(-126,-22) scale(1,1)"><path fill="none" stroke="#000000" d="M 176 480 L 176 88 L 424 88" stroke-miterlimit="10"/></g><g transform="translate(-126,-22) scale(1,1)"><path fill="none" stroke="#000000" d="M 200 480 L 200 168 L 608 168 L 608 138" stroke-miterlimit="10"/></g><g transform="translate(-126,-22) scale(1,1)"><path fill="none" stroke="#000000" d="M 416 480 L 416 120 L 424 120" stroke-miterlimit="10"/></g><g transform="translate(-126,-22) scale(1,1)"><path fill="none" stroke="#000000" d="M 224 480 L 224 176 L 720 176 L 720 137" stroke-miterlimit="10"/></g><g transform="translate(-126,-22) scale(1,1)"><path fill="none" stroke="#000000" d="M 464 480 L 464 224 L 592 224 L 592 138" stroke-miterlimit="10"/></g><g transform="translate(-126,-22) scale(1,1)"><path fill="none" stroke="#000000" d="M 440 480 L 440 192 L 752 192 L 752 137" stroke-miterlimit="10"/></g><g transform="translate(-126,-22) scale(1,1)"><path fill="none" stroke="#000000" d="M 688 480 L 688 328 L 480 328 L 480 137" stroke-miterlimit="10"/></g><g transform="translate(-126,-22) scale(1,1)"><path fill="none" stroke="#000000" d="M 712 480 L 712 312 L 640 312 L 640 138" stroke-miterlimit="10"/></g><g transform="translate(-126,-22) scale(1,1)"><path fill="none" stroke="#000000" d="M 736 480 L 736 137" stroke-miterlimit="10"/></g><g transform="translate(-126,-22) scale(1,1)"><path fill="none" stroke="#000000" d="M 936 488 L 936 88 L 801 88" stroke-miterlimit="10"/></g><g transform="translate(-126,-22) scale(1,1)"><path fill="none" stroke="#000000" d="M 960 488 L 960 264 L 615 264 L 615 138" stroke-miterlimit="10"/></g><g transform="translate(-126,-22) scale(1,1)"><path fill="none" stroke="#000000" d="M 984 488 L 984 280 L 504 280 L 504 137" stroke-miterlimit="10"/></g></g></svg>